<svg width="402" height="874" viewBox="0 0 402 874" fill="none" xmlns="http://www.w3.org/2000/svg">
<rect width="402" height="874" fill="white"/>
<circle cx="17" cy="15" r="4" fill="#D9D9D9"/>
<circle cx="108.75" cy="15" r="4" fill="#D9D9D9"/>
<circle cx="200.5" cy="15" r="4" fill="#D9D9D9"/>
<circle cx="292.25" cy="15" r="4" fill="#D9D9D9"/>
<circle cx="384" cy="15" r="4" fill="#D9D9D9"/>
<circle cx="17" cy="98" r="4" fill="#D9D9D9"/>
<circle cx="108.75" cy="98" r="4" fill="#D9D9D9"/>
<circle cx="200.5" cy="98" r="4" fill="#D9D9D9"/>
<circle cx="292.25" cy="98" r="4" fill="#D9D9D9"/>
<circle cx="384" cy="98" r="4" fill="#D9D9D9"/>
<circle cx="17" cy="181" r="4" fill="#D9D9D9"/>
<circle cx="108.75" cy="181" r="4" fill="#D9D9D9"/>
<circle cx="200.5" cy="181" r="4" fill="#D9D9D9"/>
<circle cx="292.25" cy="181" r="4" fill="#D9D9D9"/>
<circle cx="384" cy="181" r="4" fill="#D9D9D9"/>
<circle cx="17" cy="264" r="4" fill="#D9D9D9"/>
<circle cx="108.75" cy="264" r="4" fill="#D9D9D9"/>
<circle cx="200.5" cy="264" r="4" fill="#D9D9D9"/>
<circle cx="292.25" cy="264" r="4" fill="#D9D9D9"/>
<circle cx="384" cy="264" r="4" fill="#D9D9D9"/>
<circle cx="17" cy="347" r="4" fill="#D9D9D9"/>
<circle cx="108.75" cy="347" r="4" fill="#D9D9D9"/>
<circle cx="200.5" cy="347" r="4" fill="#D9D9D9"/>
<circle cx="292.25" cy="347" r="4" fill="#D9D9D9"/>
<circle cx="384" cy="347" r="4" fill="#D9D9D9"/>
<circle cx="17" cy="430" r="4" fill="#D9D9D9"/>
<circle cx="108.75" cy="430" r="4" fill="#D9D9D9"/>
<circle cx="200.5" cy="430" r="4" fill="#D9D9D9"/>
<circle cx="292.25" cy="430" r="4" fill="#D9D9D9"/>
<circle cx="384" cy="430" r="4" fill="#D9D9D9"/>
<circle cx="17" cy="513" r="4" fill="#D9D9D9"/>
<circle cx="108.75" cy="513" r="4" fill="#D9D9D9"/>
<circle cx="200.5" cy="513" r="4" fill="#D9D9D9"/>
<circle cx="292.25" cy="513" r="4" fill="#D9D9D9"/>
<circle cx="384" cy="513" r="4" fill="#D9D9D9"/>
<circle cx="17" cy="596" r="4" fill="#D9D9D9"/>
<circle cx="108.75" cy="596" r="4" fill="#D9D9D9"/>
<circle cx="200.5" cy="596" r="4" fill="#D9D9D9"/>
<circle cx="292.25" cy="596" r="4" fill="#D9D9D9"/>
<circle cx="384" cy="596" r="4" fill="#D9D9D9"/>
<circle cx="17" cy="679" r="4" fill="#D9D9D9"/>
<circle cx="108.75" cy="679" r="4" fill="#D9D9D9"/>
<circle cx="200.5" cy="679" r="4" fill="#D9D9D9"/>
<circle cx="292.25" cy="679" r="4" fill="#D9D9D9"/>
<circle cx="384" cy="679" r="4" fill="#D9D9D9"/>
<circle cx="17" cy="762" r="4" fill="#D9D9D9"/>
<circle cx="108.75" cy="762" r="4" fill="#D9D9D9"/>
<circle cx="200.5" cy="762" r="4" fill="#D9D9D9"/>
<circle cx="292.25" cy="762" r="4" fill="#D9D9D9"/>
<circle cx="384" cy="762" r="4" fill="#D9D9D9"/>
<circle cx="17" cy="845" r="4" fill="#D9D9D9"/>
<circle cx="108.75" cy="845" r="4" fill="#D9D9D9"/>
<circle cx="200.5" cy="845" r="4" fill="#D9D9D9"/>
<circle cx="292.25" cy="845" r="4" fill="#D9D9D9"/>
<circle cx="384" cy="845" r="4" fill="#D9D9D9"/>
</svg>
