<svg width="402" height="356" viewBox="0 0 402 356" fill="none" xmlns="http://www.w3.org/2000/svg">
<path d="M17.6058 256.595C12.504 219.981 16.4966 176.73 22.4052 140.117C23.1691 135.383 25.2942 119.506 28.335 116.405C43.1956 101.251 62.161 89.0704 79.46 76.7471C84.0146 73.5073 97.7742 66.3158 101.781 65.7998C122.053 63.1898 143.111 63.6978 163.454 64.086C200.016 64.5719 236.554 66.1579 273.022 68.842C284.84 69.8036 297.646 72.175 309.615 73.2269C327.49 74.7976 349.137 75.401 366.736 79.413C365.414 79.3706 364.406 79.2829 363.088 79.5069C362.676 80.6334 363.032 80.8093 363.496 82.2821C365.551 82.6646 368.59 83.0569 370.316 84.0444L370.764 84.7578C368.833 90.9502 336.476 115.507 330.117 121.469C328.604 122.89 320.906 127.672 318.836 128.592C313.454 127.857 307.101 128.274 301.605 128.28C285.451 128.3 269.923 129.952 253.676 129.204C232.771 128.242 211.846 126.966 190.969 125.682L139.051 123.005C135.26 122.805 117.41 121.045 115.435 121.537C114.553 123.033 113.997 123.329 112.604 124.332C110.189 125.128 69.7984 121.278 63.7948 120.871C59.6172 120.587 51.4854 120.201 46.7967 119.826C42.9804 119.52 36.5107 117.948 32.1907 117.527C28.062 127.839 27.7077 132.236 25.6996 142.9C22.2814 161.052 20.6328 178.915 19.7206 197.366C19.1715 205.856 18.6633 212.498 18.7314 221.197C18.8363 232.956 19.6557 244.697 21.1853 256.356C19.6828 257.114 19.5652 257.239 17.6058 256.595Z" fill="white"/>
<path d="M17.604 256.595C12.5049 219.981 16.4968 176.73 22.4038 140.116C23.1675 135.383 25.2921 119.506 28.3318 116.405C43.1871 101.251 62.1456 89.0697 79.4383 76.746C83.9912 73.5062 97.7457 66.3144 101.751 65.7983C122.016 63.188 143.066 63.6955 163.401 64.0834C199.949 64.5686 236.473 66.1539 272.928 68.8374C284.741 69.7987 297.542 72.1699 309.507 73.2215C327.375 74.792 349.014 75.395 366.606 79.4066C365.285 79.3642 364.277 79.2765 362.959 79.5005C362.547 80.6271 362.903 80.8029 363.367 82.2757C357.334 81.332 350.767 79.987 344.842 79.2447C334.584 78.0633 324.136 77.9922 313.886 76.9773C296.665 75.2716 279.285 71.7788 262.043 70.7327C247.762 69.8663 233.292 69.6999 218.988 68.5608C215.401 68.2748 211.139 68.7143 207.431 68.619L164.63 67.1829C149.917 66.8015 134.963 66.533 120.253 66.972C114.915 67.1317 109.342 67.3607 104.184 68.8068C100.251 79.736 101.981 96.9439 102.062 108.34C102.16 122.203 101.713 121.113 115.399 121.535C114.517 123.031 113.961 123.327 112.569 124.331C110.155 125.126 69.7795 121.277 63.7782 120.87C59.6021 120.586 51.4734 120.201 46.7865 119.825C42.9716 119.52 36.5044 117.948 32.186 117.526C28.0587 127.839 27.7044 132.236 25.6969 142.9C22.2797 161.052 20.6314 178.915 19.7191 197.366C19.1701 205.856 18.6619 212.498 18.7299 221.197C18.8346 232.956 19.6534 244.697 21.1823 256.356C19.6803 257.114 19.5627 257.239 17.604 256.595Z" fill="#09090A"/>
<path d="M99.7765 70.8362C100.571 71.8183 99.4021 78.3568 99.2794 80.2236C98.4555 92.747 98.0215 108.07 99.2845 120.555L61.0723 117.685C54.0102 117.185 46.3966 117.217 39.5705 115.705C38.054 115.365 35.9279 115.145 34.3419 114.935C41.3756 106.372 76.8412 82.9979 88.0582 76.3249C90.6983 74.7544 96.8119 72.0921 99.7765 70.8362Z" fill="white"/>
<path d="M366.444 79.5285C369.472 79.9357 372.326 80.4061 374.317 82.9986C380.506 91.0524 378.778 146.691 379.293 158.962C380.01 173.546 380.834 188.125 381.764 202.698C382.436 215.051 383.203 227.434 381.58 239.771C380.881 245.083 378.16 247.32 374.998 251.301C362.802 266.645 348.183 280.288 332.763 292.357C324.811 298.573 309.205 294.766 298.384 294.994C297.711 292.268 296.592 294.199 296.035 290.609C305.918 290.362 313.534 292.147 323.172 291.241C325.475 275.832 323.852 263.172 323.866 248.299C323.888 226.352 323.507 205.359 321.602 183.416C320.19 167.14 322.355 149.209 317.436 133.393C312.322 130.894 283.264 132.407 279.827 132.646C259.506 134.06 240.701 131.473 221.027 130.578C184.779 128.977 148.556 126.853 112.37 124.207C113.763 123.208 114.318 122.914 115.2 121.424C117.175 120.934 135.021 122.691 138.812 122.891L190.72 125.566C211.593 126.85 232.515 128.125 253.415 129.087C269.659 129.834 285.184 128.192 301.335 128.176C306.83 128.171 313.181 127.757 318.563 128.49C320.632 127.574 328.328 122.814 329.84 121.4C336.197 115.464 368.542 91.0173 370.472 84.8515L370.024 84.141C368.298 83.1574 365.26 82.7661 363.205 82.3848C362.74 80.9181 362.384 80.7429 362.796 79.6212C364.114 79.3984 365.122 79.486 366.444 79.5285Z" fill="#080808"/>
<path d="M372.824 88.6856C374.155 91.4947 373.946 96.1543 374.207 99.2639C374.639 104.45 375.404 109.68 375.6 114.872C376.2 130.764 375.412 146.706 375.941 162.62C376.138 168.617 376.781 174.568 377.169 180.552C378.111 194.878 378.973 209.229 378.959 223.582C378.956 229.012 379.4 234.967 377.876 240.217C374.987 250.167 338.491 284.231 329.163 289.246C328.342 289.687 327.961 290.031 327.04 289.76C328.555 274.337 327.687 262.285 327.445 247.021C327.101 225.487 327.118 204.111 325.427 182.551C324.151 166.264 325.677 147.09 320.937 131.422C335.17 123.176 361.459 100.956 372.824 88.6856Z" fill="white"/>
<path d="M347.697 108.622C352.4 108.398 363.163 109.242 366.315 112.341C373.987 119.894 363.944 130.322 357.929 135.441C351.972 140.512 347.63 144.242 340.128 147.348C338.538 148.007 337.049 148.818 335.943 149.994C334.096 152.132 330.423 153.205 330.757 149.3C332.461 146.499 339.204 143.476 342.509 141.743C350.202 137.156 358.86 130.221 363.689 123.128C373.478 108.75 348.082 112.021 339.72 111.87C335.9 111.801 328.992 115.684 325.265 114.005L325.156 113.066C327.634 108.553 342.539 108.68 347.697 108.622Z" fill="#09090A"/>
<path d="M357.381 251.526C358.655 251.902 359.24 252.472 360.146 253.374C360.894 257.091 355.9 257.975 353.823 260.187C353.374 260.662 353.287 263.287 352.828 264.041C352.439 265.932 347.097 266.182 346.832 266.668C344.931 270.12 342.663 273.25 340.338 276.425C337.937 279.704 338.303 280.078 334.516 281.353C333.687 280.579 333.182 279.903 332.471 279.016C332.966 277.677 333.81 278.146 335.205 277.262C336.118 276.683 335.882 275.115 336.032 273.667C337.46 272.458 342.287 268.421 342.58 267.052C344.044 260.253 345.417 265.49 349.668 262.169C350.548 260.557 350.073 259.786 350.242 257.707C353.143 254.595 355.64 257.502 357.381 251.526Z" fill="#09090A"/>
<path d="M356.74 239.335C359.225 239.738 367.28 244.443 367.193 247.289C366.482 248.475 366.312 249.031 365.133 249.697C362.501 249.114 361.579 244.898 358.292 242.546C354.776 246.512 354.591 244.295 350.44 244.755C349.308 244.881 348.054 245.987 345.501 245.711C344.22 244.96 344.644 245.468 344.133 244.176C347.379 241.118 351.628 242.991 356.267 239.676L356.74 239.335Z" fill="#09090A"/>
<path d="M333.712 242.671C336.092 242.628 336.128 242.875 338.161 243.723C337.997 243.656 341.404 243.325 341.842 243.294C343.013 244.016 342.673 243.592 342.988 244.978C342.063 245.953 339.444 247.012 337.991 246.735C332.748 243.457 334.215 247.039 330.712 246.899C329.108 246.2 329.589 246.614 328.598 245.379L328.826 244.592C330.307 243.583 331.91 243.225 333.712 242.671Z" fill="#09090A"/>
<path d="M21.0313 255.988C21.2298 257.646 21.509 259.627 21.492 261.283C21.428 267.528 22.773 272.987 24.4087 278.963C38.8851 282.783 50.0236 282.314 64.7993 282.327C69.6745 282.327 74.9475 283.082 79.7665 283.222C91.7087 282.869 105.946 281.784 117.731 283.217C132.115 284.965 145.847 284.021 160.138 285.203C161.783 285.439 164.115 285.407 165.123 286.177C165.308 287.513 164.904 287.997 164.296 289.282C152.872 289.658 139.696 288.048 128.061 288.227C122.92 287.853 117.717 286.975 112.579 286.676C102.163 286.076 91.5359 287.25 81.1647 287.089C73.0399 286.967 65.2669 285.921 56.989 286.056C50.2341 286.585 27.4055 285.437 22.2267 280.779C17.8006 276.8 17.7319 262.564 17.4443 256.237C19.4069 256.895 19.525 256.766 21.0313 255.988Z" fill="#09090A"/>
<path d="M171.449 284.544C196.241 284.704 220.962 284.996 245.619 287.74C248.423 288.052 251.333 288.277 254.154 288.5C259.277 288.378 263.862 288.787 268.961 289.209C268.596 290.73 268.563 291.728 267.407 292.646L265.27 293.13C264.269 293.144 261.148 292.694 259.637 292.671C257.821 292.641 253.481 292.885 252.205 292.649C234.376 290.327 215.089 289.658 197.142 289.161C189.29 288.944 176.214 289.441 169.188 288.553C168.829 287.294 168.472 286.425 168.572 285.131C169.586 285.04 170.515 285.011 171.449 284.544Z" fill="#09090A"/>
<path d="M269.154 290.298C278.104 290.814 287.153 291.547 296.07 291.888C296.689 294.462 297.796 293.099 298.52 295.057C297.518 295.031 295.584 294.746 294.264 294.678C284.63 294.184 275.123 293.472 265.461 292.941L267.628 292.642C268.79 292.028 268.807 291.341 269.154 290.298Z" fill="#1E1D1E"/>
<path d="M159.715 285.36C162.686 285.164 168.91 285.342 171.867 285.519C170.918 285.849 169.968 285.857 168.933 285.909C168.848 286.86 169.226 287.504 169.611 288.436C167.515 288.373 166.085 288.362 164.002 288.444C164.603 287.498 165.008 287.144 164.801 286.15C163.765 285.565 161.392 285.557 159.715 285.36Z" fill="#2F2E2F"/>
<path d="M35.7556 136.765C35.2004 136.156 33.4713 134.24 33.4473 133.678C33.0316 123.892 54.652 122.889 60.5261 119.574C65.0509 117.319 70.2078 111.823 75.0997 110.483C96.2051 104.704 120.865 99.1872 142.681 103.739C146.741 104.586 152.976 105.325 156.523 106.891C157.454 107.643 159.187 108.615 159.526 109.379C157.664 109.591 157.262 109.349 155.564 109.374C148.052 107.89 140.059 105.534 132.386 105.024C115.817 103.925 98.5023 107.708 82.402 111.076C74.404 112.749 68.4762 120.044 62.3881 122.307C50.1638 126.852 45.1516 124.445 35.0316 133.813C54.4328 138.767 68.6807 136.892 88.0167 138.81C90.824 139.089 108.323 144.211 112.943 145.287L112.281 147.229C111.359 147.584 111.361 147.553 110.359 147.63C106.927 146.774 102.405 145.768 99.1761 144.542C86.0957 139.572 71.5677 140.944 57.8794 140.209C50.4093 139.752 42.9998 138.598 35.7556 136.765Z" fill="#09090A"/>
<path d="M126.239 146.818C142.325 146.674 158.515 142.464 175.38 144.125C187.527 145.32 207.378 142.888 218.755 146.535C244.548 154.8 267.299 155.84 294.169 154.386C298.243 154.166 315.559 152.296 318.303 153.238L318.726 153.909C318.303 154.575 317.857 155.463 316.804 155.599C294.316 158.402 270.654 158.211 248.032 156.404C239.304 155.707 226.731 150.349 218.205 148.957C203.704 146.589 187.821 146.506 173.143 146.721C165.944 146.827 158.808 146.352 151.616 147.023C145.878 147.285 136.385 149.206 131.421 149.337C129.749 149.214 126.961 149.322 125.731 148.631C125.483 147.551 125.454 147.992 126.239 146.818Z" fill="#09090A"/>
<path d="M250.878 245.183C251.169 245.255 251.455 245.33 251.741 245.408C267.942 249.83 256.694 269.101 259.5 273.94L259.918 273.837C260.533 268.357 261.806 268.401 263.51 263.577C263.732 262.95 263.482 259.897 263.887 258.166L264.675 257.746C266.516 257.933 265.981 257.628 267.192 258.661C268.907 263.232 263.147 270.78 264.379 272.61C268.749 263.328 271.46 263.859 271.853 253.618C273.427 251.941 276.663 251.687 277.32 254.099C276.378 255.223 276.745 254.866 274.964 255.282C274.782 266.701 271.339 264.489 267.626 274.625C267.03 276.26 267.945 280.455 266.135 282.058C264.352 283.633 256.314 283.058 253.906 282.879C251.816 281.506 250.93 280.882 249.978 278.575L250.363 278.118C252.2 278.199 252.397 278.363 253.838 279.49C257.002 279.733 260.168 279.948 263.335 280.134C257.076 276.059 255.434 275.03 254.563 267.608C257.98 260.972 258.027 256.38 254.829 249.454C252.939 248.61 250.812 248.006 250.07 246.268L250.878 245.183Z" fill="#09090A"/>
<path d="M213.641 113.74C225.338 113.385 237.058 113.959 248.667 115.455C268.074 118.085 287.345 123.005 307.031 118.623C309.329 118.112 311.602 117.034 313.555 118.369C313.924 119.682 313.849 119.209 313.406 120.639C311.989 121.572 308.819 121.823 307.061 122.112C283.282 126.009 259.702 118.962 236.16 116.735C230.347 116.185 224.149 116.657 218.232 116.241C216.419 115.879 210.819 115.669 208.445 115.414C207.863 114.828 207.966 115.155 207.913 114.49C209.963 114.347 211.655 114.25 213.641 113.74Z" fill="#09090A"/>
<path d="M153.995 202.835C155.292 203.25 156.277 203.489 156.661 204.802C150.779 208.7 152.232 208.591 153.595 215.074C153.875 216.405 154.051 218.357 154.177 219.754C150.345 227.204 150.689 225.338 148.557 233.962C150.705 231.224 152.524 228.095 155.01 225.618C156.743 223.891 160.264 223.755 161.199 221.437C162.098 219.213 160.455 216.706 161.293 214.777C162.908 214.606 162.303 214.451 163.63 215.213C168.439 222.145 160.781 225.51 156.552 228.98C155.621 229.744 153.86 232.534 153.106 233.654C151.098 235.718 150.803 236.404 149.501 239.004C145.5 239.915 141.867 230.113 141.961 226.94C142.013 225.177 143.66 221.895 143.251 220.053C142.828 218.149 140.234 216.008 140.011 214.003C144.203 212.625 145.924 218.766 147.02 221.63C146.09 224.127 144.604 226.793 145.656 229.212C146.153 228.756 150.41 218.455 150.419 217.661C150.502 210.271 144.785 207.778 153.995 202.835Z" fill="#09090A"/>
<path d="M238.038 233.498C238.964 233.548 238.652 233.533 239.556 234.026C241.729 237.58 241.383 236.312 245.09 236.526C246.617 237.533 246.321 237.04 247.132 238.576L246.798 239.621C243.112 242.387 239.744 238.753 237.604 235.898C236.501 237.327 235.463 239.067 234.483 240.615C233.528 239.645 232.395 238.296 231.46 237.252L225.829 237.588C225.217 239.126 225.137 239.397 224.223 240.706C222.558 240.964 218.509 241.554 216.835 241.733C216.366 241.783 215.776 239.995 214.114 240.108C212.973 241.554 212.637 242.382 210.891 242.077C210.104 241.073 209.755 240.562 209.084 239.46C207.509 239.586 207.545 240.375 205.86 241.798C204.594 241.489 202.023 239.011 200.873 238.008C199.243 238.585 198.271 239.301 196.801 240.237L196.199 240.294C194.581 239.093 193.16 236.927 191.891 235.215C189.77 236.03 185.622 239.734 184.173 237.632C184.226 233.748 190.531 232.926 193.073 232.61C196.751 237.446 196.776 234.577 201.939 235.717C202.351 235.809 204.552 237.43 205.074 237.816C213.243 234.457 218.284 241.385 223.984 234.15C225.825 234.119 229.096 234.048 230.846 234.503C234.352 235.414 234.874 233.846 238.038 233.498Z" fill="#09090A"/>
<path d="M64.593 268.079C68.4923 268.576 65.8591 272.038 69.3765 272.669C71.2654 272.1 72.5219 270.687 73.9839 269.345C74.0654 269.427 74.1472 269.508 74.2287 269.59L74.6455 269.989C76.4748 271.765 77.5453 272.522 79.9065 273.617C82.9777 275.042 83.9408 271.856 86.7484 274.282C87.2233 275.692 87.2954 275.889 87.1045 277.352L86.5091 277.779C78.3328 277.299 81.7824 276.915 76.5793 274.501C72.8351 272.764 69.4181 279.313 64.4452 272.798C62.5878 274.104 60.6732 275.565 58.8346 276.917C55.3867 278.86 54.6618 276.372 52.1388 274.993C48.9591 273.254 39.9813 272.967 36.1623 272.945C34.6018 271.422 33.1166 270.481 33.4619 268.169L34.1751 267.856C35.6795 268.356 36.2102 269.326 37.2265 270.583C41.8457 270.075 45.3208 270.651 49.8803 271.248C53.1627 271.678 54.3502 272.013 56.2701 274.575C58.8891 272.752 62.3874 270.27 64.593 268.079Z" fill="#09090A"/>
<path d="M157.133 106.819C160.163 107.59 162.942 108.576 165.902 109.581C180.797 114.633 198.136 112.283 213.24 113.474C211.267 114.054 209.59 114.172 207.556 114.344C207.605 115.084 207.505 114.72 208.078 115.368C210.431 115.639 215.981 115.839 217.776 116.231C213.99 116.787 208.284 116.212 204.418 116.253C185.017 116.461 174.417 116.032 156.212 109.343C157.828 109.312 158.21 109.557 159.983 109.336C159.663 108.562 158.016 107.579 157.133 106.819Z" fill="#09090A"/>
<path d="M229.366 252.969C236.789 253.281 245.336 263.275 233.711 263.729C230.775 263.911 228.674 263.918 225.727 263.844C219.557 259.699 224.648 255.531 229.366 252.969Z" fill="#09090A"/>
<path d="M232.272 255.323C234.327 255.967 236.916 257.356 236.006 259.545C234.786 260.356 233.55 260.269 231.974 260.387C230.149 260.529 228.01 260.519 226.154 260.549C228.264 257.891 228.923 256.654 232.272 255.323Z" fill="white"/>
<path d="M80.8894 225.813C83.136 225.78 88.2443 226.06 87.2025 229.316C84.6693 229.597 84.4274 226.682 79.8817 230.521C79.0534 231.221 76.2807 229.379 74.4656 231.678C74.1248 234.017 76.1687 235.44 75.0157 237.337C73.2966 237.628 71.9906 235.787 71.0377 236.24C69.4661 236.987 68.8679 238.322 66.7221 238.321L66.0402 239.31L65.8878 239.66C63.8982 240.094 63.6072 239.972 61.6951 241.218C61.1621 241.565 59.9876 241.273 59.3075 240.875C58.0508 235.885 65.0613 237.731 66.1766 237.144C66.9526 231.544 71.2697 234.771 71.702 232.754C72.8821 227.246 70.1313 228.676 78.0468 227.885C79.1464 226.926 79.6405 226.59 80.8894 225.813Z" fill="#09090A"/>
<path d="M122.12 256.596C126.636 256.402 131.086 258.419 133.018 263.106C133.387 264 132.869 264.65 132.39 265.331C131.004 266.019 129.92 265.539 128.335 265.189C124.475 265.124 120.008 266.368 116.984 263.451C115.538 259.764 119.216 257.736 122.12 256.596Z" fill="#09090A"/>
<path d="M126.286 260.059C127.625 260.744 127.777 260.771 128.813 261.889L128.744 262.509C127.181 263.395 125.745 263.112 123.953 263.041C122.643 263.126 122.086 263.399 121.029 262.811C121.889 261.192 124.71 260.346 126.286 260.059Z" fill="white"/>
<path d="M229.163 277.278C232.311 278.03 231.579 280.576 234.401 280.366C234.602 280.156 235.746 278.974 235.863 278.949C238.288 278.434 244.93 278.939 246.126 281.512C245.378 282.182 244.254 282.633 243.27 282.597C238.429 282.417 234.323 285.15 230.262 281.898L229.672 281.629C225.211 283.373 219.217 284.855 214.991 281.486C213.962 280.668 213.293 279.894 213.107 278.592C214.58 277.901 219.857 280.378 222.304 281.094C225.335 280.1 226.531 279.115 229.163 277.278Z" fill="#09090A"/>
<path d="M172.437 231.377C176.178 231.901 179.333 232.738 180.913 236.437L180.648 236.958C178.094 237.29 174.83 235.338 172.463 234.601C171.558 234.318 170.262 235.844 168.929 236.679C167.239 236.663 167.911 236.836 166.389 235.924C166.185 235.727 165.978 235.533 165.768 235.343C164.414 234.118 164.033 233.955 162.41 234.022C160.643 235.389 160.047 236.049 157.898 235.868C156.658 234.966 157 235.542 156.705 234.168C157.761 232.438 162.425 231.338 164.398 231.561C168.086 233.953 168.578 233.237 172.437 231.377Z" fill="#09090A"/>
<path d="M91.8008 272.733C96.2518 273.275 93.9242 276.194 100.307 274.353C101.953 275.512 103.409 276.248 105.178 277.186C106.99 276.559 108.166 275.669 110.037 275.744C111.281 276.612 110.888 276.351 111.428 278.229C110.048 279.176 106.732 280.552 105.42 279.909C102.284 278.373 97.439 278.21 94.6531 277.385C94.0306 277.207 93.4656 276.865 93.0149 276.393C91.9488 275.266 91.8315 274.208 91.8008 272.733Z" fill="#09090A"/>
<path d="M276.678 232.082C282.863 233.501 284.891 237.062 279.434 240.851C273.065 241.946 271.863 235.893 276.678 232.082Z" fill="#09090A"/>
<path d="M196.724 274.577C200.224 274.914 206.398 279.865 210.063 276.119L210.318 275.856C211.494 275.652 211.627 275.812 212.668 276.37C213.366 277.531 213.227 276.991 212.891 278.644L212.57 278.856C210.197 280.445 201.508 280.798 199.078 279.943C197.289 278.424 197.004 276.914 196.724 274.577Z" fill="#09090A"/>
<path d="M253.459 236.549C256.504 236.22 264.859 238.245 264.644 242.123L263.839 242.503C262.478 242.472 262.091 241.989 261.004 241.121L260.605 240.802C259.663 241.422 259.656 241.483 258.524 241.788C256.917 241.176 257.665 241.387 256.643 239.773C255.219 237.512 253.07 241.016 250.011 240.514C249.184 239.29 249.268 239.796 249.375 238.517C250.318 237.382 251.979 237.048 253.459 236.549Z" fill="#09090A"/>
<path d="M300.284 207.818C305.373 209.203 308.105 209.594 303.865 216.042C298.926 218.896 298.378 212.24 300.284 207.818Z" fill="#09090A"/>
<path d="M35.3345 255.609C37.2054 255.628 37.3189 255.676 38.4188 256.811C38.101 258.531 35.9547 257.52 34.922 259.894C35.2247 260.728 35.3535 261.158 35.5717 262.026C34.6903 263.732 32.5996 264.057 30.9044 267.351C29.8545 268.258 29.8151 268.27 28.5303 268.517C28.1534 268.077 27.7701 267.448 28.0592 266.77C29.536 263.314 31.9097 260.599 33.3043 257.028C33.4171 256.738 35.0007 255.805 35.3345 255.609Z" fill="#09090A"/>
<path d="M287.19 239.231C289.33 239.741 289.466 240.977 290.4 241.396C291.526 241.9 295.332 240.111 295.526 243.548C294.518 244.31 291.601 244.541 290.002 244.897C288.354 244.044 288.149 243.464 287.054 242.15C286.088 242.494 285.132 242.859 284.187 243.246C282.861 243.047 283.474 243.272 282.378 242.39L282.355 241.638C283.454 240.072 285.237 239.652 287.19 239.231Z" fill="#09090A"/>
<path d="M302.444 218.979C303.594 219.107 305.941 219.53 306.787 220.327C307.338 220.852 307.643 221.582 307.622 222.338C307.572 224.087 306.188 225.325 305.008 226.472C300.207 228.125 300.066 222.344 302.444 218.979Z" fill="#09090A"/>
<path d="M114.819 145.638C119.212 146.615 122.391 146.68 126.907 146.794C126.12 147.891 126.147 147.477 126.402 148.49C127.645 149.142 130.458 149.05 132.145 149.171C126.96 150.211 117.478 148.799 112.322 147.665C113.294 147.603 113.292 147.63 114.185 147.325L114.819 145.638Z" fill="#09090A"/>
<path d="M41.3428 228.247C42.8849 228.372 43.3962 228.65 44.13 230.357C44.1494 233.569 42.1672 235.085 40.0642 235.922C38.6823 235.461 38.0202 234.837 37.3695 233.246C37.4562 229.96 39.087 229.008 41.3428 228.247Z" fill="#09090A"/>
<path d="M52.3754 242.262C54.0687 242.213 55.3173 242.175 57.0313 242.288C58.214 242.861 58.162 242.816 58.9571 243.779L58.5925 244.318L55.9258 244.792C55.1252 246.162 54.8513 246.465 53.7202 247.644C53.0231 248.051 52.358 248.302 51.6062 248.624C50.1936 248.641 50.1256 248.519 48.9139 247.735C48.4304 245.93 50.4732 245.395 51.75 244.344C51.7757 244.322 52.3024 242.513 52.3754 242.262Z" fill="#09090A"/>
<path d="M301.645 228.898C306.019 228.899 307.315 232.11 304.59 236.769C300.938 236.672 299.169 232.869 301.645 228.898Z" fill="#09090A"/>
<path d="M302.152 237.756C306.969 238.371 306.169 241.691 303.414 244.451C299.353 243.157 299.044 240.522 302.152 237.756Z" fill="#09090A"/>
<path d="M130.901 229.335C132.559 230.351 136.505 230.655 135.65 233.498C134.171 234.367 132.102 233.673 130.66 232.987C128.425 232.46 129.328 233.979 126.942 233.447C125.955 232.26 125.861 232.557 125.891 231.391C127.598 230.602 129.151 230.005 130.901 229.335Z" fill="#09090A"/>
<path d="M312.384 241.618C315.562 241.582 319.415 242.142 318.594 244.872L317.67 245.152C316.367 244.966 316.872 245.185 316.055 244.54C315.269 243.975 315.256 243.889 314.173 243.585C313.24 244.129 312.699 244.559 311.49 244.758C310.223 244.108 310.623 244.329 309.912 243.228C310.288 242.419 311.319 242.101 312.384 241.618Z" fill="#09090A"/>
<path d="M277.801 246.515C283.095 246.692 285.113 247.357 283.794 251.21C278.781 251.119 277.047 249.868 277.801 246.515Z" fill="#09090A"/>
<path d="M120.184 228.808C122.227 229.552 124.726 230.017 124.716 232.8L124.031 233.306C122.49 233.541 122.03 233.147 120.53 232.463L119.991 232.116L118.713 232.515C117.26 232.224 117.202 232.142 115.949 231.25L116.012 230.482C117.278 229.277 118.492 229.204 120.184 228.808Z" fill="#09090A"/>
<path d="M40.6305 241.476C42.8163 241.736 44.5405 241.671 45.7144 243.328C45.4417 244.662 44.7671 244.942 43.4631 245.891C39.501 246.472 37.4189 243.933 40.6305 241.476Z" fill="#09090A"/>
<path d="M283.355 255.624C285.897 255.958 286.881 255.964 288.113 258.374C288.234 260.196 287.743 260.775 286.902 262.431L284.903 262.317C282.03 260.415 282.293 258.971 283.355 255.624Z" fill="#09090A"/>
<path d="M93.7856 224.268C95.8985 224.179 97.9415 224.228 98.453 227.375L97.9715 228.214C96.4658 228.385 96.8161 228.227 95.2462 227.223C94.2466 227.348 93.743 227.903 92.7938 228.566C91.3514 228.288 91.7647 228.603 90.706 227.561L90.8073 226.737C91.7815 225.023 92.1299 225.04 93.7856 224.268Z" fill="#09090A"/>
<path d="M276.003 280.886C279.634 280.912 281.791 280.101 282.477 284.095C280.788 284.173 279.484 284.363 277.866 283.87C276.567 282.929 276.576 282.505 276.003 280.886Z" fill="#09090A"/>
<path d="M44.0568 251.594C47.0392 251.935 48.1379 254.236 46.7721 257.254C45.018 256.654 43.6759 256.214 42.9699 254.179C43.1215 252.473 42.9726 253.095 44.0568 251.594Z" fill="#09090A"/>
<path d="M300.981 247.815C301.716 247.586 302.566 247.68 303.205 248.058C303.845 248.437 304.173 249.04 304.056 249.635C303.94 250.229 303.401 250.72 302.651 250.916C301.533 251.208 300.281 250.772 299.83 249.933C299.379 249.093 299.887 248.155 300.981 247.815Z" fill="#09090A"/>
<path d="M121.629 273.095C124.008 273.306 126.128 273.783 125.876 276.555C123.114 276.755 121.886 275.746 121.629 273.095Z" fill="#09090A"/>
<path d="M57.2442 229.029C58.6072 230.107 59.1371 230.638 59.5146 232.44L58.9541 233.534C57.776 232.971 57.0833 232.803 56.281 231.62C56.2729 230.011 56.2001 230.596 57.2442 229.029Z" fill="#09090A"/>
</svg>
