<svg xmlns="http://www.w3.org/2000/svg" viewBox="0 0 240 300" fill="none">
  <!-- Pot shadow -->
  <ellipse cx="120" cy="272" rx="58" ry="10" fill="#C4A882" opacity="0.35"/>
  <!-- Pot -->
  <path d="M72 248 Q70 282 100 288 H140 Q170 282 168 248 Z" fill="#D4976A"/>
  <rect x="67" y="239" width="106" height="13" rx="6.5" fill="#C4845A"/>
  <!-- Soil -->
  <ellipse cx="120" cy="248" rx="50" ry="8.5" fill="#6B4226"/>

  <!-- Stems (5) -->
  <path d="M114 246 Q104 216 96 184 Q88 156 90 132" stroke="#467628" stroke-width="3.5" stroke-linecap="round" fill="none"/>
  <path d="M118 246 Q114 218 110 190 Q106 164 108 140 Q110 118 112 100" stroke="#467628" stroke-width="3.5" stroke-linecap="round" fill="none"/>
  <path d="M120 246 Q122 218 124 190 Q127 164 130 140 Q134 116 138 96" stroke="#467628" stroke-width="3.5" stroke-linecap="round" fill="none"/>
  <path d="M124 246 Q132 218 138 190 Q144 164 144 140 Q144 118 142 100" stroke="#467628" stroke-width="3" stroke-linecap="round" fill="none"/>
  <path d="M116 246 Q108 224 102 202 Q96 182 96 162" stroke="#467628" stroke-width="3" stroke-linecap="round" fill="none"/>

  <!-- Leaves (5 large) -->
  <!-- Far left -->
  <path d="M90 132 Q50 108 36 74 Q34 50 54 44 Q74 38 88 62 Q96 80 92 110Z" fill="#469A2A"/>
  <path d="M90 132 Q54 110 44 78 Q60 68 80 82 Q94 96 92 118Z" fill="#60B040" opacity="0.5"/>

  <!-- Mid-left -->
  <path d="M96 162 Q62 142 50 110 Q48 88 64 82 Q80 76 92 96 Q100 114 98 144Z" fill="#48A02C"/>
  <path d="M96 162 Q66 144 56 114 Q70 106 86 118 Q98 132 98 152Z" fill="#62B842" opacity="0.5"/>

  <!-- Mid-right -->
  <path d="M108 140 Q80 118 72 90 Q70 70 84 66 Q98 62 106 80 Q112 96 110 124Z" fill="#4AA42E"/>

  <!-- Right -->
  <path d="M130 140 Q168 118 180 84 Q182 60 166 54 Q150 48 140 70 Q132 90 130 118Z" fill="#4AA02C"/>
  <path d="M130 140 Q164 120 174 88 Q160 80 146 92 Q134 106 130 128Z" fill="#64BA44" opacity="0.5"/>

  <!-- Far right -->
  <path d="M144 140 Q178 116 192 80 Q194 56 178 50 Q162 44 150 66 Q142 86 142 118Z" fill="#469A28"/>
  <path d="M144 140 Q174 118 186 84 Q172 76 158 88 Q146 102 142 128Z" fill="#60B23E" opacity="0.5"/>

  <!-- Bloom 1 (far left, red) -->
  <path d="M90 132 Q82 114 78 98" stroke="#467628" stroke-width="3" stroke-linecap="round" fill="none"/>
  <path d="M78 98 Q64 70 50 64 Q40 60 38 72 Q36 86 48 94 Q66 102 78 98Z" fill="#E42044"/>
  <path d="M78 98 Q92 74 92 58 Q92 46 84 44 Q74 42 70 56 Q66 70 78 98Z" fill="#CC1836"/>
  <path d="M52 72 Q48 68 46 74 Q50 80 56 80Z" fill="#F04054" opacity="0.6"/>
  <path d="M78 98 Q82 80 84 64" stroke="#F0C030" stroke-width="4" stroke-linecap="round" fill="none"/>
  <ellipse cx="84" cy="62" rx="3.5" ry="2.5" fill="#F5D84E" transform="rotate(-5 84 62)"/>

  <!-- Bloom 2 (center, pink-red) -->
  <path d="M112 100 Q112 82 112 66" stroke="#467628" stroke-width="3" stroke-linecap="round" fill="none"/>
  <path d="M112 66 Q98 40 84 34 Q74 30 72 42 Q70 56 82 64 Q98 72 112 66Z" fill="#E0204E"/>
  <path d="M112 66 Q126 42 126 28 Q126 16 118 14 Q108 13 104 26 Q100 40 112 66Z" fill="#C81840"/>
  <path d="M86 42 Q82 38 80 44 Q84 50 90 50Z" fill="#EE3C58" opacity="0.6"/>
  <path d="M112 66 Q114 48 116 32" stroke="#F0C030" stroke-width="4" stroke-linecap="round" fill="none"/>
  <ellipse cx="116" cy="30" rx="3.5" ry="2.5" fill="#F5D84E" transform="rotate(-10 116 30)"/>

  <!-- Bloom 3 (right, deep red) -->
  <path d="M138 96 Q140 78 142 62" stroke="#467628" stroke-width="3" stroke-linecap="round" fill="none"/>
  <path d="M142 62 Q130 36 116 30 Q106 26 104 38 Q102 50 114 58 Q130 66 142 62Z" fill="#E82840"/>
  <path d="M142 62 Q156 38 156 24 Q156 12 148 10 Q138 9 134 22 Q130 36 142 62Z" fill="#D01E38"/>
  <path d="M118 38 Q114 34 112 40 Q116 46 122 46Z" fill="#F23850" opacity="0.6"/>
  <path d="M142 62 Q146 44 148 28" stroke="#F0C030" stroke-width="4" stroke-linecap="round" fill="none"/>
  <ellipse cx="148" cy="26" rx="3.5" ry="2.5" fill="#F5D84E" transform="rotate(-15 148 26)"/>

  <!-- Small sparkle hints -->
  <circle cx="58" cy="42" r="2" fill="#FFD700" opacity="0.7"/>
  <circle cx="178" cy="48" r="2" fill="#FFD700" opacity="0.7"/>
  <circle cx="118" cy="12" r="2.5" fill="#FFD700" opacity="0.8"/>
</svg>
